<?xml version="1.0" encoding="utf-8"?>
<!-- Generator: Adobe Illustrator 27.0.0, SVG Export Plug-In . SVG Version: 6.00 Build 0)  -->
<svg version="1.1" id="Layer_1" xmlns="http://www.w3.org/2000/svg" xmlns:xlink="http://www.w3.org/1999/xlink" x="0px" y="0px"
	 viewBox="0 0 129.33 79.83" style="enable-background:new 0 0 129.33 79.83;" xml:space="preserve">
<style type="text/css">
	.st0{fill:#fd2525;}
</style>
<g>
	<path class="st0" d="M67.26,62.07c-1.51-0.72-2.73-1.79-3.65-3.19c-0.92-1.41-1.5-3.03-1.74-4.85c-0.24-1.88-0.03-3.59,0.64-5.14
		c0.66-1.54,1.66-2.81,3-3.79c1.33-0.98,2.82-1.58,4.47-1.79c1.54-0.2,2.93-0.05,4.17,0.44c1.24,0.49,2.25,1.19,3.02,2.1
		c0.76,0.91,1.21,1.87,1.35,2.89c0.11,0.89-0.02,1.54-0.41,1.94c-0.39,0.41-1.07,0.75-2.04,1.04l-8.72,2.43
		c-0.2,0.08-0.35,0.16-0.45,0.26c-0.09,0.09-0.13,0.24-0.1,0.45c0.11,0.84,0.44,1.66,0.99,2.48c0.55,0.82,1.31,1.46,2.26,1.92
		c0.95,0.46,2.01,0.62,3.18,0.47c1.25-0.16,2.32-0.56,3.19-1.2c0.87-0.64,1.54-1.4,2.02-2.29c0.18-0.26,0.36-0.4,0.54-0.43
		c0.24-0.03,0.43,0.02,0.58,0.15c0.15,0.13,0.24,0.29,0.26,0.5c0.01,0.1,0,0.21-0.04,0.32c-0.42,1.51-1.24,2.83-2.48,3.94
		c-1.24,1.11-2.87,1.8-4.91,2.06C70.48,63.03,68.77,62.79,67.26,62.07z M73.37,50.28c0.46-0.14,0.77-0.3,0.94-0.48
		c0.16-0.18,0.22-0.44,0.18-0.78c-0.08-0.65-0.34-1.28-0.78-1.89c-0.44-0.61-1.01-1.08-1.72-1.43c-0.71-0.35-1.48-0.47-2.32-0.36
		c-0.76,0.1-1.45,0.41-2.09,0.94c-0.64,0.53-1.11,1.23-1.42,2.09c-0.31,0.86-0.4,1.82-0.27,2.86c0.07,0.52,0.17,0.84,0.3,0.94
		c0.13,0.1,0.36,0.11,0.7,0.01L73.37,50.28z"/>
	<path class="st0" d="M83.28,69.14c-0.37,0.05-0.67-0.02-0.92-0.2c-0.25-0.18-0.39-0.41-0.43-0.7c-0.03-0.24,0.03-0.48,0.17-0.72
		c0.14-0.24,0.36-0.44,0.66-0.58c2.28-1.04,3.19-3.38,2.72-7.04l-1.59-12.41c-0.07-0.57-0.18-0.98-0.33-1.21
		c-0.15-0.23-0.45-0.33-0.9-0.3c-0.7,0.12-1.22,0.16-1.55,0.14c-0.34-0.02-0.52-0.18-0.56-0.47c-0.04-0.29,0.04-0.52,0.23-0.69
		s0.5-0.37,0.92-0.62l1.09-0.5c1.78-0.84,2.95-1.29,3.52-1.37c0.44-0.06,0.78-0.01,0.99,0.15c0.22,0.16,0.36,0.45,0.41,0.86
		l1.9,14.84c0.38,3,0.01,5.37-1.12,7.09c-1.13,1.72-2.76,2.93-4.87,3.63C83.55,69.09,83.44,69.12,83.28,69.14z M82.18,39.44
		c-0.6-0.35-0.95-0.86-1.03-1.54c-0.08-0.65,0.12-1.22,0.62-1.69c0.5-0.47,1.2-0.77,2.12-0.89c0.86-0.11,1.58,0,2.17,0.34
		c0.59,0.34,0.92,0.83,1.01,1.48c0.09,0.68-0.11,1.26-0.59,1.75c-0.48,0.49-1.15,0.78-2.02,0.89C83.54,39.9,82.78,39.79,82.18,39.44
		z"/>
	<path class="st0" d="M98.26,56.72c-1.3-1.05-2.12-2.85-2.44-5.38l-0.93-7.24c-0.07-0.58-0.19-0.98-0.36-1.23
		c-0.16-0.24-0.47-0.34-0.91-0.28c-0.13,0.02-0.4,0.05-0.82,0.11c-0.42,0.05-0.73,0.05-0.93,0c-0.21-0.05-0.32-0.18-0.35-0.39
		c-0.04-0.31,0.04-0.57,0.24-0.77c0.2-0.2,0.51-0.39,0.94-0.58c1.28-0.62,2.25-1.07,2.93-1.35c0.68-0.28,1.24-0.46,1.69-0.51
		c0.44-0.06,0.77-0.01,0.99,0.13c0.22,0.15,0.35,0.43,0.41,0.84L100,50.13c0.23,1.78,0.73,3.03,1.49,3.75
		c0.77,0.72,1.81,1,3.11,0.84c0.78-0.1,1.5-0.42,2.14-0.97c0.65-0.55,1.13-1.32,1.45-2.32c0.32-1,0.4-2.17,0.22-3.53l-0.7-5.44
		c-0.07-0.57-0.19-0.98-0.36-1.23c-0.16-0.24-0.47-0.34-0.91-0.28c-0.16,0.02-0.44,0.06-0.84,0.11c-0.4,0.05-0.71,0.05-0.91,0
		c-0.21-0.05-0.32-0.18-0.35-0.39c-0.04-0.31,0.04-0.57,0.24-0.77c0.2-0.2,0.5-0.39,0.9-0.57c0.18-0.08,0.65-0.3,1.41-0.66
		c0.76-0.36,1.42-0.64,1.96-0.85c0.55-0.2,0.97-0.32,1.29-0.36c0.44-0.06,0.77-0.01,0.99,0.13c0.22,0.15,0.35,0.43,0.41,0.84
		l1.71,13.35c0.07,0.58,0.18,0.98,0.33,1.21c0.15,0.23,0.45,0.33,0.89,0.3l0.94-0.16c0.36-0.05,0.64-0.04,0.84,0.03
		c0.19,0.07,0.31,0.22,0.34,0.45c0.04,0.29-0.04,0.52-0.23,0.69c-0.19,0.17-0.5,0.37-0.92,0.61l-1.09,0.5
		c-1.78,0.84-2.95,1.29-3.53,1.37c-0.44,0.06-0.77,0.01-0.99-0.15c-0.22-0.16-0.36-0.45-0.41-0.86l-0.26-2.04
		c-0.05-0.42-0.14-0.62-0.27-0.6c-0.05,0.01-0.22,0.39-0.49,1.14c-0.27,0.75-0.85,1.5-1.72,2.25c-0.87,0.75-2.08,1.22-3.62,1.42
		C101.17,58.18,99.56,57.78,98.26,56.72z"/>
	<path class="st0" d="M48.83,33.49c-1.08-0.83-1.78-2.27-2.1-4.33l-0.91-5.88c-0.07-0.47-0.18-0.8-0.32-0.99
		c-0.14-0.2-0.39-0.27-0.75-0.21c-0.11,0.02-0.33,0.05-0.67,0.1c-0.34,0.05-0.59,0.06-0.76,0.02c-0.17-0.04-0.27-0.14-0.29-0.31
		c-0.04-0.25,0.02-0.46,0.18-0.63c0.16-0.16,0.41-0.33,0.75-0.49c1.03-0.53,1.81-0.91,2.36-1.16c0.55-0.25,1-0.4,1.36-0.45
		c0.36-0.06,0.63-0.03,0.81,0.09c0.18,0.11,0.3,0.34,0.35,0.68l1.26,8.17c0.22,1.44,0.65,2.45,1.3,3.02
		c0.64,0.57,1.49,0.78,2.55,0.62c0.64-0.1,1.21-0.38,1.73-0.84c0.51-0.46,0.89-1.1,1.14-1.92c0.24-0.82,0.28-1.78,0.11-2.88
		l-0.68-4.42c-0.07-0.47-0.18-0.8-0.32-0.99c-0.14-0.19-0.39-0.27-0.75-0.21c-0.13,0.02-0.36,0.05-0.68,0.11
		c-0.33,0.05-0.58,0.06-0.75,0.02c-0.17-0.04-0.27-0.14-0.29-0.31c-0.04-0.25,0.02-0.46,0.18-0.63c0.16-0.16,0.4-0.33,0.72-0.49
		c0.14-0.06,0.52-0.25,1.13-0.57c0.61-0.31,1.14-0.55,1.58-0.73c0.44-0.18,0.79-0.28,1.04-0.32c0.36-0.06,0.63-0.03,0.81,0.09
		c0.18,0.11,0.3,0.34,0.35,0.68l1.67,10.84c0.07,0.47,0.17,0.79,0.3,0.98c0.13,0.19,0.37,0.26,0.74,0.23l0.76-0.15
		c0.3-0.05,0.52-0.04,0.68,0.01c0.16,0.05,0.26,0.17,0.28,0.36c0.04,0.23-0.02,0.42-0.17,0.56c-0.15,0.14-0.4,0.32-0.73,0.52
		l-0.88,0.43c-1.43,0.72-2.38,1.11-2.84,1.19c-0.36,0.06-0.63,0.02-0.81-0.1c-0.18-0.12-0.3-0.35-0.35-0.69l-0.25-1.65
		c-0.05-0.34-0.13-0.5-0.24-0.48c-0.04,0.01-0.17,0.32-0.38,0.94c-0.21,0.62-0.66,1.24-1.36,1.87c-0.7,0.63-1.67,1.04-2.92,1.23
		C51.23,34.62,49.92,34.32,48.83,33.49z"/>
	<path class="st0" d="M68.71,30.9c-1.25-0.51-2.28-1.33-3.08-2.44c-0.8-1.11-1.31-2.41-1.54-3.89c-0.23-1.5-0.11-2.91,0.37-4.22
		c0.48-1.31,1.24-2.39,2.27-3.23c1.03-0.84,2.21-1.37,3.55-1.57c1.04-0.16,2.06-0.12,3.08,0.13c1.01,0.25,1.87,0.68,2.56,1.3
		c0.69,0.62,1.1,1.37,1.24,2.23c0.06,0.4,0.01,0.76-0.16,1.07c-0.17,0.31-0.46,0.49-0.86,0.55c-0.49,0.08-0.89,0.01-1.2-0.2
		c-0.31-0.21-0.59-0.56-0.81-1.05c-0.58-1.91-1.81-2.72-3.69-2.43c-0.66,0.1-1.25,0.4-1.76,0.91c-0.52,0.5-0.89,1.16-1.11,1.98
		c-0.22,0.81-0.25,1.74-0.09,2.78c0.3,1.97,0.98,3.53,2.04,4.67c1.05,1.14,2.39,1.58,4,1.34c0.93-0.14,1.75-0.48,2.45-1.01
		c0.7-0.53,1.24-1.15,1.63-1.86c0.16-0.26,0.31-0.41,0.45-0.43c0.19-0.03,0.34,0.01,0.46,0.11c0.11,0.1,0.18,0.24,0.21,0.41
		c0.01,0.11,0.02,0.19,0.01,0.26c-0.28,1.26-0.91,2.35-1.89,3.27c-0.98,0.92-2.29,1.51-3.94,1.76
		C71.34,31.55,69.96,31.41,68.71,30.9z"/>
	<path class="st0" d="M81.27,29.57c-0.28-0.09-0.45-0.27-0.49-0.54c-0.06-0.36,0.11-0.62,0.5-0.79c0.55-0.22,0.94-0.44,1.15-0.66
		c0.22-0.23,0.33-0.5,0.35-0.82c0.02-0.32-0.03-0.81-0.13-1.49l-2.25-14.59c-0.07-0.47-0.18-0.8-0.32-0.99
		c-0.14-0.2-0.39-0.27-0.75-0.21l-0.76,0.15C78,9.7,77.68,9.59,77.61,9.27c-0.04-0.23,0.02-0.43,0.17-0.58
		c0.15-0.15,0.4-0.33,0.76-0.54l0.88-0.43c1.43-0.72,2.38-1.11,2.84-1.19c0.36-0.06,0.63-0.02,0.81,0.1
		c0.18,0.12,0.3,0.36,0.35,0.69l1.91,12.43c0.07,0.42,0.21,0.62,0.45,0.58c0.15-0.02,0.3-0.16,0.46-0.4l3.44-4.69
		c0.22-0.29,0.31-0.55,0.27-0.76c-0.02-0.13-0.11-0.2-0.26-0.22c-0.16-0.02-0.49,0-1,0.06c-0.15,0-0.28-0.04-0.39-0.13
		c-0.11-0.09-0.18-0.23-0.21-0.42c-0.07-0.45,0.31-0.73,1.14-0.86l4.74-0.73c0.4-0.06,0.71-0.06,0.93,0
		c0.22,0.06,0.35,0.26,0.4,0.57c0.08,0.51-0.14,0.83-0.67,0.95c-0.74,0.14-1.31,0.33-1.7,0.59c-0.4,0.26-0.75,0.6-1.08,1.04
		l-1.51,2.05c-0.23,0.32-0.33,0.58-0.3,0.8c0.02,0.15,0.13,0.33,0.31,0.54l5.23,5.44c0.56,0.56,0.99,0.92,1.29,1.07
		c0.29,0.15,0.69,0.22,1.19,0.21c0.24,0.03,0.46,0.1,0.65,0.21c0.19,0.11,0.3,0.27,0.34,0.49c0.04,0.28-0.05,0.51-0.28,0.69
		c-0.23,0.19-0.55,0.31-0.95,0.37l-2.26,0.32l-2.25,0.38c-0.64,0.1-1.09,0.1-1.36,0.01c-0.27-0.09-0.43-0.27-0.47-0.55
		c-0.02-0.15,0.02-0.27,0.12-0.36c0.1-0.09,0.26-0.2,0.46-0.31c0.22-0.12,0.39-0.24,0.5-0.35c0.11-0.12,0.16-0.25,0.13-0.4
		c-0.03-0.17-0.16-0.38-0.39-0.62l-3.79-3.87c-0.26-0.28-0.51-0.41-0.74-0.37c-0.15,0.02-0.32,0.14-0.5,0.34l-1.02,1.39
		c-0.17,0.18-0.26,0.38-0.27,0.59c-0.01,0.22,0.03,0.62,0.12,1.22l0.12,0.76c0.06,0.42,0.15,0.74,0.24,0.95
		c0.1,0.21,0.29,0.39,0.57,0.52c0.28,0.13,0.7,0.22,1.28,0.26c0.45,0.08,0.7,0.29,0.75,0.63c0.04,0.28-0.04,0.5-0.26,0.66
		c-0.21,0.16-0.62,0.29-1.21,0.38l-2.52,0.36l-2.44,0.41C82.01,29.65,81.56,29.65,81.27,29.57z"/>
	<path class="st0" d="M102.44,25.64c-1.25-0.56-2.26-1.4-3.04-2.53c-0.78-1.13-1.28-2.43-1.51-3.92c-0.24-1.53-0.1-2.92,0.41-4.2
		c0.51-1.27,1.3-2.32,2.36-3.15c1.07-0.83,2.27-1.34,3.6-1.55c1.25-0.19,2.39-0.1,3.41,0.27c1.02,0.37,1.86,0.92,2.5,1.65
		c0.64,0.73,1.03,1.5,1.16,2.33c0.11,0.72,0.01,1.25-0.29,1.59c-0.3,0.34-0.85,0.64-1.64,0.89l-7.05,2.16
		c-0.16,0.07-0.28,0.14-0.36,0.22c-0.07,0.08-0.1,0.2-0.07,0.37c0.11,0.68,0.39,1.34,0.86,2c0.47,0.65,1.1,1.16,1.88,1.52
		c0.78,0.36,1.65,0.46,2.6,0.31c1.02-0.16,1.87-0.5,2.57-1.05c0.7-0.54,1.23-1.18,1.59-1.9c0.14-0.22,0.28-0.34,0.43-0.36
		c0.19-0.03,0.35,0.01,0.47,0.11c0.12,0.1,0.2,0.23,0.23,0.4c0.01,0.08,0,0.17-0.02,0.26c-0.31,1.24-0.95,2.33-1.94,3.26
		c-0.98,0.93-2.3,1.53-3.96,1.78C105.08,26.36,103.68,26.2,102.44,25.64z M107.17,15.91c0.37-0.12,0.62-0.26,0.75-0.41
		c0.13-0.15,0.17-0.36,0.13-0.64c-0.08-0.53-0.31-1.04-0.67-1.52c-0.37-0.49-0.84-0.86-1.43-1.13c-0.58-0.27-1.21-0.35-1.89-0.25
		c-0.61,0.09-1.17,0.37-1.68,0.81c-0.51,0.45-0.88,1.02-1.12,1.73c-0.24,0.71-0.29,1.49-0.16,2.33c0.07,0.42,0.15,0.68,0.26,0.76
		c0.11,0.08,0.3,0.08,0.57-0.01L107.17,15.91z"/>
	<path class="st0" d="M115.44,19.52l-1.25-8.1c-0.07-0.44-0.32-0.63-0.77-0.57l-0.48,0.07c-0.21,0.03-0.38-0.01-0.51-0.13
		c-0.13-0.12-0.21-0.28-0.24-0.47c-0.05-0.34,0.04-0.78,0.29-1.31l0.27-0.59c0.5-1.25,1-2.19,1.48-2.83
		c0.57-0.65,1.18-1.03,1.81-1.13c0.25-0.04,0.44,0.01,0.54,0.14c0.11,0.14,0.19,0.36,0.24,0.68l0.33,2.13
		c0.08,0.53,0.16,0.86,0.23,0.99c0.07,0.13,0.22,0.18,0.43,0.14l4.23-0.65c0.25-0.04,0.43-0.03,0.54,0.01
		c0.1,0.05,0.18,0.21,0.22,0.49c0.05,0.32,0,0.58-0.16,0.77c-0.16,0.2-0.38,0.32-0.68,0.36l-3.69,0.57
		c-0.49,0.08-0.7,0.35-0.62,0.81l1.16,7.53c0.17,1.08,0.51,1.86,1.04,2.33c0.53,0.47,1.18,0.65,1.97,0.53
		c0.47-0.07,0.94-0.29,1.43-0.64c0.49-0.36,0.88-0.85,1.17-1.48c0.1-0.21,0.25-0.33,0.46-0.36c0.19-0.03,0.35,0.02,0.46,0.16
		c0.12,0.13,0.16,0.3,0.13,0.5c-0.45,2.54-1.98,4.02-4.59,4.42C117.78,24.37,115.96,22.91,115.44,19.52z"/>
	<path class="st0" d="M53.28,42.39c-4.36-0.81-6.52-3.21-8.5-7.18c-0.6-1.21-1.1-2.47-1.5-3.7l-1.93-5.91
		c-2.12-6.51-3.19-9.78-3.2-9.85c-0.1-0.75,0.28-1.74,1.14-2.94c0.86-1.21,1.27-1.98,1.22-2.32l-0.05-0.38
		c-0.06-0.44-0.32-0.63-0.79-0.57l-9.62,1.29c-0.97,0.13-1.49,0.67-1.56,1.6L26.2,36.57c-0.12,0.5-0.44,0.78-0.95,0.84
		c-0.47,0.07-0.82-0.1-1.07-0.48c-1.32-2.03-3.99-9.5-8-22.41c-0.13-0.49-0.43-0.88-0.9-1.17c-0.47-0.29-0.99-0.4-1.56-0.32
		l-9.2,1.24c-0.44,0.06-0.63,0.31-0.57,0.75l0.05,0.38c0.04,0.28,0.27,0.58,0.7,0.89C5.13,16.6,5.69,17,6.4,17.48
		c0.71,0.48,1.29,0.98,1.74,1.5C7.64,33.15,7.4,40.31,7.41,40.44c-0.02,0.6-0.29,1.27-0.81,2c-0.53,0.73-1.05,1.38-1.56,1.96
		s-0.75,1.03-0.71,1.34l0.06,0.43c0.02,0.15,0.12,0.3,0.3,0.44c0.18,0.14,0.34,0.19,0.5,0.17l7.08-0.95
		c0.16-0.02,0.31-0.11,0.46-0.28c0.15-0.16,0.22-0.31,0.21-0.44l-0.14-1.03c-0.12-0.21-0.45-0.52-0.99-0.95
		c-0.54-0.42-1.01-0.89-1.42-1.42c-0.4-0.52-0.6-1.07-0.58-1.65l0.53-16.06c0.05-0.07,0.1-0.11,0.13-0.12
		c0.1-0.01,0.15,0.01,0.16,0.08c0.46,1.12,1.17,2.9,2.1,5.33c0.93,2.44,1.75,4.47,2.43,6.11c0.68,1.63,1.22,2.8,1.6,3.48
		c2.15,3.87,4.51,5.7,7.07,5.49l-0.05,0c0.16,0.01,0.43-0.01,0.81-0.06c1.45-0.19,2.76-0.66,3.95-1.39
		c0.48-0.26,0.54-0.64,0.18-1.13c-0.39-0.55-0.51-1.43-0.35-2.64l2.11-21.12c-0.01-0.1,0.03-0.15,0.12-0.16
		c0.15-0.02,0.24,0.03,0.26,0.16l4.66,14.3c1.25,3.83,3.15,7.45,5.86,10.43c1.58,1.73,3.5,3.33,5.71,4.17l3.22,23.2
		c0.14,1.01-0.02,1.9-0.48,2.67c-0.46,0.77-1.18,1.22-2.16,1.35c-1.02,0.11-1.85-0.16-2.5-0.79c-0.65-0.63-1.05-1.45-1.19-2.46
		c-0.15-1.11-0.09-2.01,0.19-2.7c0.07-0.01,0.11-0.07,0.13-0.17c0.38-0.71,0.53-1.41,0.43-2.12c-0.15-1.04-0.72-1.88-1.71-2.52
		c-1-0.63-2.12-0.86-3.37-0.69c-1.18,0.16-2.13,0.72-2.84,1.66c-0.71,0.94-1.07,2-1.08,3.17c0.04,2.5,1.28,4.6,3.73,6.28
		c2.45,1.69,5.39,2.29,8.83,1.81c3.61-0.5,6.24-1.72,7.89-3.64c1.65-1.93,2.31-4.18,1.95-6.74l-2.4-17.29
		c0.87-0.15,1.84-0.47,2.94-1.07c1.71-0.93,3.8-2.41,3.55-3.12C61.95,42.93,61.21,43.87,53.28,42.39z"/>
</g>
</svg>
