<?xml version="1.0" encoding="utf-8"?>
<!-- Generator: Adobe Illustrator 27.0.0, SVG Export Plug-In . SVG Version: 6.00 Build 0)  -->
<svg version="1.1" id="Layer_1" xmlns="http://www.w3.org/2000/svg" xmlns:xlink="http://www.w3.org/1999/xlink" x="0px" y="0px"
	 viewBox="0 0 200 200" style="enable-background:new 0 0 200 200;" xml:space="preserve">
<style type="text/css">
	.st0{fill:#EC1A2E;}
	.st1{fill:#FFFFFF;}
</style>
<g>
	<g>
		<path class="st0" d="M119.1,169.24c-6.08,8.92-11.83,17.35-18.47,27.09c-6.52-9.44-12.47-18.06-18.78-27.19
			c-9.72,4.66-18.96,9.1-29.76,14.28c-0.52-8.3-1.51-15.76-1.3-23.19c0.22-7.75-2.35-11.37-10.47-10.91
			c-7.24,0.41-14.52,0.09-24.07,0.09c5.33-11.26,9.8-20.71,14.82-31.32c-8.84-5.97-17.57-11.86-27.41-18.5
			c7.54-5.04,13.99-9.77,20.85-13.81c5.38-3.17,6.6-6.43,3.34-12.06c-3.97-6.87-7.13-14.21-11.04-22.19
			c11.7-1.02,22.17-1.94,33.26-2.91c0.61-11.23,1.16-21.44,1.79-33.07c10.5,5.14,19.69,9.64,29.9,14.64
			c6.11-8.83,12.13-17.51,18.86-27.24c6.38,9.27,12.35,17.94,18.69,27.16c9.77-4.7,18.94-9.12,29.15-14.04
			c0.64,6.67,2.08,12.32,1.54,17.78c-1.35,13.71,5.7,17.26,17.63,16.52c4.94-0.31,9.94,0.37,16.81,0.7
			c-4.91,10.2-9.45,19.62-14.48,30.08c8.99,5.97,17.75,11.78,27.57,18.3c-9.61,6.6-18.03,12.38-27.57,18.93
			c4.64,9.49,9.25,18.91,14.6,29.85c-8.28,0.42-15.02,1.21-21.73,0.99c-8.38-0.28-12.9,2-12.34,11.58c0.4,6.79-1.06,13.7-1.84,22.18
			C138.61,178.31,129.18,173.93,119.1,169.24z"/>
	</g>
	<g>
		<path class="st1" d="M46.09,81.72h14.66c8.07,0,13.05,5.03,13.03,12.33c0.02,7.4-5.05,12.28-13.27,12.28h-5.99v11.24h-8.42V81.72z
			 M58.97,99.65c3.99,0.02,6.09-2.2,6.09-5.6c0-3.34-2.1-5.5-6.09-5.5h-4.46v11.09H58.97z"/>
		<path class="st1" d="M86.46,117.58h-8.42V81.72h8.42V117.58z"/>
		<path class="st1" d="M108.6,88.65c-5.27-0.02-8.52,4.01-8.52,11c0,7.23,3.32,11,8.47,11c3.86,0,6.54-2.08,7.18-5.6l8.52,0.05
			c-0.67,6.39-6.14,12.98-15.85,12.98c-9.71,0-16.94-6.64-16.94-18.42c0-11.84,7.38-18.43,16.94-18.43
			c8.59,0,14.96,4.88,15.85,13.42h-8.52C115.26,90.96,112.61,88.63,108.6,88.65z"/>
		<path class="st1" d="M129.15,81.72h8.42v15.3h0.5l12.04-15.3h10l-12.83,16l13.03,19.86h-10.1l-9.06-14.21l-3.57,4.41v9.81h-8.42
			V81.72z"/>
	</g>
</g>
</svg>
